<svg width="256" height="253" viewBox="0 0 256 253" fill="none" xmlns="http://www.w3.org/2000/svg">
<g clip-path="url(#clip0_21_37)">
<rect y="41" width="212" height="212" rx="106" fill="#A2C72E"/>
<path d="M77.6702 221.954C75.9582 221.954 74.2532 221.734 72.5972 221.299L53.6437 216.324C51.3649 215.769 51.4987 213.628 53.7774 213.073L72.8014 208.545C74.3217 208.183 75.8792 208 77.442 208.001L255.013 208.083C258.867 208.084 261.985 211.219 261.967 215.073V215.073C261.949 218.904 258.838 221.999 255.008 221.998L77.6702 221.954Z" fill="#0C2F36" fill-opacity="0.5"/>
</g>
<path d="M89.0055 194.299C86.5028 196.799 83.3819 198.591 79.961 199.491L54.3109 206.241C51.1177 207.191 46.9146 202.745 47.8652 199.552L55.5271 174.681C56.4889 171.559 58.2007 168.721 60.513 166.413L213.004 14.2331C220.782 6.47065 233.383 6.49039 241.137 14.2772V14.2772C248.876 22.0494 248.859 34.6211 241.099 42.3727L89.0055 194.299Z" fill="url(#paint0_linear_21_37)"/>
<defs>
<linearGradient id="paint0_linear_21_37" x1="50.1421" y1="205.061" x2="241.061" y2="14.1421" gradientUnits="userSpaceOnUse">
<stop stop-color="#0C2F36"/>
<stop offset="0.68" stop-color="#436633"/>
<stop offset="1" stop-color="#A2C72E"/>
</linearGradient>
<clipPath id="clip0_21_37">
<rect y="41" width="212" height="212" rx="106" fill="white"/>
</clipPath>
</defs>
</svg>
