<svg width="254" height="49" viewBox="0 0 254 49" fill="none" xmlns="http://www.w3.org/2000/svg">
<path d="M0.00524426 12H1.68524C2.26124 12 2.64524 12.048 2.83724 12.144C3.06124 12.208 3.36524 12.4 3.74924 12.72C4.26124 13.136 4.51724 13.536 4.51724 13.92H4.70924C4.70924 13.536 5.06124 13.136 5.76524 12.72C6.34124 12.368 6.72524 12.16 6.91724 12.096C7.14124 12.032 7.54124 12 8.11724 12H16.6132C17.3812 12 18.1492 12.32 18.9172 12.96L20.0692 13.92C20.8372 14.56 21.2212 15.36 21.2212 16.32V36H17.1892V17.328C17.1892 16.848 17.1572 16.544 17.0932 16.416C17.0612 16.256 16.9012 16.064 16.6132 15.84C16.3252 15.616 16.1012 15.488 15.9412 15.456C15.7812 15.392 15.4132 15.36 14.8372 15.36H8.69324C8.11724 15.36 7.71724 15.392 7.49324 15.456C7.30124 15.52 6.91724 15.728 6.34124 16.08C5.76524 16.432 5.42924 16.688 5.33324 16.848C5.23724 17.008 5.18924 17.328 5.18924 17.808V36H1.15724V17.328C1.15724 16.848 1.12524 16.544 1.06124 16.416C1.02924 16.256 0.869244 16.064 0.581244 15.84C0.293244 15.616 0.117244 15.44 0.0532444 15.312C0.0212443 15.152 0.00524426 14.832 0.00524426 14.352V12ZM31.6144 12H43.1344C43.9024 12 44.6704 12.32 45.4384 12.96L46.5904 13.92C47.3584 14.56 47.7424 15.36 47.7424 16.32V31.68C47.7424 32.64 47.3584 33.44 46.5904 34.08L45.4384 35.04C44.6704 35.68 43.9024 36 43.1344 36H31.6144C30.8464 36 30.0784 35.68 29.3104 35.04L28.1584 34.08C27.3904 33.44 27.0064 32.64 27.0064 31.68V16.32C27.0064 15.36 27.3904 14.56 28.1584 13.92L29.3104 12.96C30.0784 12.32 30.8464 12 31.6144 12ZM43.7104 30.672V17.328C43.7104 16.848 43.6784 16.544 43.6144 16.416C43.5824 16.256 43.4224 16.064 43.1344 15.84C42.8464 15.616 42.6224 15.488 42.4624 15.456C42.3024 15.392 41.9344 15.36 41.3584 15.36H33.3904C32.8144 15.36 32.4464 15.392 32.2864 15.456C32.1264 15.488 31.9024 15.616 31.6144 15.84C31.3264 16.064 31.1504 16.256 31.0864 16.416C31.0544 16.544 31.0384 16.848 31.0384 17.328V30.672C31.0384 31.152 31.0544 31.472 31.0864 31.632C31.1504 31.76 31.3264 31.936 31.6144 32.16C31.9024 32.384 32.1264 32.528 32.2864 32.592C32.4464 32.624 32.8144 32.64 33.3904 32.64H41.3584C41.9344 32.64 42.3024 32.624 42.4624 32.592C42.6224 32.528 42.8464 32.384 43.1344 32.16C43.4224 31.936 43.5824 31.76 43.6144 31.632C43.6784 31.472 43.7104 31.152 43.7104 30.672ZM59.0565 5.28V12H65.2005C65.6165 12.32 65.8565 12.576 65.9205 12.768C66.0165 12.928 66.0645 13.376 66.0645 14.112V15.36H59.0565V30.672C59.0565 31.152 59.0725 31.472 59.1045 31.632C59.1685 31.76 59.3445 31.936 59.6325 32.16C59.9205 32.384 60.1445 32.528 60.3045 32.592C60.4645 32.624 60.8325 32.64 61.4085 32.64H65.7765C66.1925 32.96 66.4325 33.216 66.4965 33.408C66.5925 33.568 66.6405 34.016 66.6405 34.752V36H59.6325C58.8645 36 58.0965 35.68 57.3285 35.04L56.1765 34.08C55.4085 33.44 55.0245 32.64 55.0245 31.68V15.36H52.7205C52.3045 15.04 52.0485 14.8 51.9525 14.64C51.8885 14.448 51.8565 13.984 51.8565 13.248V12H55.0245V5.28H59.0565ZM89.7251 31.68L92.6051 34.08L91.4531 35.04C90.8771 35.52 90.4771 35.808 90.2531 35.904C90.0611 35.968 89.6771 36 89.1011 36H76.2851C75.5171 36 74.7491 35.68 73.9811 35.04L72.8291 34.08C72.0611 33.44 71.6771 32.64 71.6771 31.68V16.32C71.6771 15.36 72.0611 14.56 72.8291 13.92L73.9811 12.96C74.7491 12.32 75.5171 12 76.2851 12H87.4691C88.1091 12 88.8771 12.32 89.7731 12.96L90.9731 13.92C91.7411 14.496 92.1251 15.296 92.1251 16.32V26.16H75.7091V30.672C75.7091 31.152 75.7251 31.472 75.7571 31.632C75.8211 31.76 75.9971 31.936 76.2851 32.16C76.5731 32.384 76.7971 32.528 76.9571 32.592C77.1171 32.624 77.4851 32.64 78.0611 32.64H87.3731C87.9491 32.64 88.3331 32.608 88.5251 32.544C88.7491 32.448 89.1491 32.16 89.7251 31.68ZM88.0931 23.04V17.328C88.0931 16.848 88.0611 16.544 87.9971 16.416C87.9651 16.256 87.8051 16.064 87.5171 15.84C87.2291 15.616 87.0051 15.488 86.8451 15.456C86.6851 15.392 86.3171 15.36 85.7411 15.36H78.0611C77.4851 15.36 77.1171 15.392 76.9571 15.456C76.7971 15.488 76.5731 15.616 76.2851 15.84C75.9971 16.064 75.8211 16.256 75.7571 16.416C75.7251 16.544 75.7091 16.848 75.7091 17.328V23.04H88.0931ZM124.952 36L117.944 7.104L117.704 5.904H117.512L117.272 7.104L110.408 36H104.744L95.7202 2.4H99.9922L107.192 31.968L107.432 33.168H107.672L107.864 31.968L114.968 2.4H120.296L127.592 31.968L127.88 33.168H128.072L128.264 31.968L135.224 2.4H139.496L130.472 36H124.952ZM147.255 12H158.775C159.543 12 160.311 12.32 161.079 12.96L162.231 13.92C162.999 14.56 163.383 15.36 163.383 16.32V31.68C163.383 32.64 162.999 33.44 162.231 34.08L161.079 35.04C160.311 35.68 159.543 36 158.775 36H147.255C146.487 36 145.719 35.68 144.951 35.04L143.799 34.08C143.031 33.44 142.647 32.64 142.647 31.68V16.32C142.647 15.36 143.031 14.56 143.799 13.92L144.951 12.96C145.719 12.32 146.487 12 147.255 12ZM159.351 30.672V17.328C159.351 16.848 159.319 16.544 159.255 16.416C159.223 16.256 159.063 16.064 158.775 15.84C158.487 15.616 158.263 15.488 158.103 15.456C157.943 15.392 157.575 15.36 156.999 15.36H149.031C148.455 15.36 148.087 15.392 147.927 15.456C147.767 15.488 147.543 15.616 147.255 15.84C146.967 16.064 146.791 16.256 146.727 16.416C146.695 16.544 146.679 16.848 146.679 17.328V30.672C146.679 31.152 146.695 31.472 146.727 31.632C146.791 31.76 146.967 31.936 147.255 32.16C147.543 32.384 147.767 32.528 147.927 32.592C148.087 32.624 148.455 32.64 149.031 32.64H156.999C157.575 32.64 157.943 32.624 158.103 32.592C158.263 32.528 158.487 32.384 158.775 32.16C159.063 31.936 159.223 31.76 159.255 31.632C159.319 31.472 159.351 31.152 159.351 30.672ZM169.177 12H170.857C171.433 12 171.817 12.048 172.009 12.144C172.233 12.208 172.537 12.4 172.921 12.72C173.433 13.136 173.689 13.536 173.689 13.92H173.881C173.881 13.536 174.233 13.136 174.937 12.72C175.513 12.368 175.897 12.16 176.089 12.096C176.313 12.032 176.713 12 177.289 12H181.705C182.473 12 183.241 12.32 184.009 12.96L185.161 13.92L182.281 16.32L181.705 15.84C181.417 15.616 181.193 15.488 181.033 15.456C180.873 15.392 180.505 15.36 179.929 15.36H177.865C177.289 15.36 176.889 15.392 176.665 15.456C176.473 15.52 176.089 15.728 175.513 16.08C174.937 16.432 174.601 16.688 174.505 16.848C174.409 17.008 174.361 17.328 174.361 17.808V36H170.329V17.328C170.329 16.848 170.297 16.544 170.233 16.416C170.201 16.256 170.041 16.064 169.753 15.84C169.465 15.616 169.289 15.44 169.225 15.312C169.193 15.152 169.177 14.832 169.177 14.352V12ZM194.76 5.28V12H200.904C201.32 12.32 201.56 12.576 201.624 12.768C201.72 12.928 201.768 13.376 201.768 14.112V15.36H194.76V30.672C194.76 31.152 194.776 31.472 194.808 31.632C194.872 31.76 195.048 31.936 195.336 32.16C195.624 32.384 195.848 32.528 196.008 32.592C196.168 32.624 196.536 32.64 197.112 32.64H201.48C201.896 32.96 202.136 33.216 202.2 33.408C202.296 33.568 202.344 34.016 202.344 34.752V36H195.336C194.568 36 193.8 35.68 193.032 35.04L191.88 34.08C191.112 33.44 190.728 32.64 190.728 31.68V15.36H188.424C188.008 15.04 187.752 14.8 187.656 14.64C187.592 14.448 187.56 13.984 187.56 13.248V12H190.728V5.28H194.76ZM214.484 12H222.884C223.652 12 224.42 12.32 225.188 12.96L226.34 13.92C227.108 14.56 227.492 15.36 227.492 16.32V36H223.46V17.328C223.46 16.848 223.428 16.544 223.364 16.416C223.332 16.256 223.172 16.064 222.884 15.84C222.596 15.616 222.372 15.488 222.212 15.456C222.052 15.392 221.684 15.36 221.108 15.36H214.964C214.356 15.36 213.94 15.392 213.716 15.456C213.524 15.52 213.14 15.728 212.564 16.08C211.988 16.432 211.652 16.688 211.556 16.848C211.46 17.008 211.412 17.328 211.412 17.808V36H207.38V0.48H211.412V14.256H211.604C211.604 13.968 211.956 13.52 212.66 12.912C213.364 12.304 213.972 12 214.484 12ZM248.711 48.48H234.887V47.232C234.887 46.496 234.919 46.032 234.983 45.84C235.079 45.68 235.335 45.44 235.751 45.12H247.511C248.087 45.12 248.455 45.088 248.615 45.024C248.775 44.992 248.999 44.864 249.287 44.64C249.575 44.416 249.735 44.224 249.767 44.064C249.831 43.936 249.863 43.632 249.863 43.152V33.696H249.671C249.607 33.984 249.223 34.432 248.519 35.04C247.751 35.68 246.983 36 246.215 36H237.863C237.095 36 236.327 35.68 235.559 35.04L234.407 34.08C233.639 33.44 233.255 32.64 233.255 31.68V12H237.287V30.672C237.287 31.152 237.303 31.472 237.335 31.632C237.399 31.76 237.575 31.936 237.863 32.16C238.151 32.384 238.375 32.528 238.535 32.592C238.695 32.624 239.063 32.64 239.639 32.64H245.783C246.359 32.64 246.743 32.608 246.935 32.544C247.159 32.48 247.559 32.272 248.135 31.92C248.711 31.568 249.047 31.312 249.143 31.152C249.239 30.992 249.287 30.672 249.287 30.192V12H253.319V44.16C253.319 45.12 252.935 45.92 252.167 46.56L251.015 47.52C250.247 48.16 249.479 48.48 248.711 48.48Z" fill="#A2C72E"/>
</svg>
